<svg xmlns="http://www.w3.org/2000/svg" xmlns:xlink="http://www.w3.org/1999/xlink" width="500" zoomAndPan="magnify" viewBox="0 0 375 374.999991" height="500" preserveAspectRatio="xMidYMid meet" version="1.0"><defs><g/><clipPath id="99495babb8"><path d="M 154.136719 155.140625 L 215.636719 155.140625 L 215.636719 205.390625 L 154.136719 205.390625 Z M 154.136719 155.140625 " clip-rule="nonzero"/></clipPath><clipPath id="74b6fed63e"><path d="M 211.074219 155.140625 L 158.695312 155.140625 C 158.410156 155.140625 158.125 155.171875 157.84375 155.226562 C 157.5625 155.285156 157.289062 155.367188 157.023438 155.476562 C 156.761719 155.589844 156.507812 155.722656 156.269531 155.886719 C 156.03125 156.046875 155.8125 156.230469 155.609375 156.433594 C 155.40625 156.636719 155.226562 156.859375 155.066406 157.101562 C 154.90625 157.34375 154.773438 157.597656 154.664062 157.863281 C 154.554688 158.128906 154.46875 158.40625 154.414062 158.691406 C 154.359375 158.972656 154.332031 159.261719 154.332031 159.550781 L 154.332031 185.996094 C 154.332031 186.285156 154.359375 186.574219 154.414062 186.859375 C 154.46875 187.140625 154.554688 187.417969 154.664062 187.683594 C 154.773438 187.953125 154.90625 188.207031 155.066406 188.445312 C 155.226562 188.6875 155.40625 188.910156 155.609375 189.113281 C 155.8125 189.320312 156.03125 189.5 156.269531 189.664062 C 156.507812 189.824219 156.761719 189.960938 157.023438 190.070312 C 157.289062 190.179688 157.5625 190.265625 157.84375 190.320312 C 158.125 190.378906 158.410156 190.40625 158.695312 190.40625 L 183.429688 190.40625 L 183.429688 199.367188 C 177.808594 199.554688 172.328125 200.53125 166.988281 202.308594 C 166.804688 202.367188 166.640625 202.460938 166.496094 202.585938 C 166.347656 202.714844 166.230469 202.863281 166.144531 203.039062 C 166.054688 203.210938 166.003906 203.394531 165.992188 203.589844 C 165.976562 203.785156 165.996094 203.972656 166.058594 204.15625 C 166.117188 204.34375 166.210938 204.511719 166.335938 204.660156 C 166.460938 204.808594 166.609375 204.929688 166.777344 205.019531 C 166.949219 205.109375 167.132812 205.164062 167.324219 205.183594 C 167.515625 205.203125 167.707031 205.183594 167.890625 205.128906 C 170.625 204.207031 173.417969 203.515625 176.261719 203.050781 C 179.109375 202.585938 181.972656 202.351562 184.855469 202.351562 C 187.738281 202.351562 190.601562 202.585938 193.449219 203.050781 C 196.296875 203.515625 199.085938 204.207031 201.820312 205.128906 C 202.007812 205.1875 202.195312 205.207031 202.390625 205.191406 C 202.582031 205.175781 202.765625 205.121094 202.9375 205.03125 C 203.109375 204.9375 203.257812 204.816406 203.382812 204.667969 C 203.507812 204.515625 203.597656 204.347656 203.65625 204.15625 C 203.71875 203.972656 203.742188 203.78125 203.730469 203.585938 C 203.71875 203.390625 203.667969 203.207031 203.578125 203.03125 C 203.492188 202.859375 203.375 202.707031 203.222656 202.582031 C 203.074219 202.457031 202.910156 202.363281 202.722656 202.308594 C 197.402344 200.535156 191.941406 199.554688 186.339844 199.367188 L 186.339844 190.40625 L 211.074219 190.40625 C 211.363281 190.40625 211.644531 190.378906 211.925781 190.320312 C 212.207031 190.265625 212.480469 190.179688 212.746094 190.070312 C 213.011719 189.960938 213.261719 189.824219 213.5 189.664062 C 213.738281 189.5 213.957031 189.320312 214.160156 189.113281 C 214.363281 188.910156 214.546875 188.6875 214.703125 188.445312 C 214.863281 188.207031 214.996094 187.953125 215.109375 187.683594 C 215.21875 187.417969 215.300781 187.140625 215.355469 186.859375 C 215.410156 186.574219 215.441406 186.285156 215.441406 185.996094 L 215.441406 159.550781 C 215.441406 159.261719 215.410156 158.972656 215.355469 158.691406 C 215.300781 158.40625 215.21875 158.128906 215.109375 157.863281 C 214.996094 157.597656 214.863281 157.34375 214.703125 157.101562 C 214.546875 156.859375 214.363281 156.636719 214.160156 156.433594 C 213.957031 156.230469 213.738281 156.046875 213.5 155.886719 C 213.261719 155.722656 213.011719 155.589844 212.746094 155.476562 C 212.480469 155.367188 212.207031 155.285156 211.925781 155.226562 C 211.644531 155.171875 211.363281 155.140625 211.074219 155.140625 Z M 212.53125 185.996094 C 212.53125 186.191406 212.492188 186.378906 212.417969 186.558594 C 212.34375 186.738281 212.238281 186.898438 212.105469 187.035156 C 211.96875 187.175781 211.808594 187.28125 211.632812 187.355469 C 211.453125 187.429688 211.269531 187.46875 211.074219 187.46875 L 158.695312 187.46875 C 158.503906 187.46875 158.316406 187.429688 158.136719 187.355469 C 157.960938 187.28125 157.804688 187.175781 157.667969 187.035156 C 157.53125 186.898438 157.425781 186.738281 157.351562 186.558594 C 157.277344 186.378906 157.238281 186.191406 157.238281 185.996094 L 157.238281 159.550781 C 157.238281 159.355469 157.277344 159.167969 157.351562 158.988281 C 157.425781 158.808594 157.53125 158.648438 157.667969 158.511719 C 157.804688 158.375 157.960938 158.265625 158.136719 158.191406 C 158.316406 158.117188 158.503906 158.082031 158.695312 158.082031 L 211.074219 158.082031 C 211.269531 158.082031 211.453125 158.117188 211.632812 158.191406 C 211.808594 158.265625 211.96875 158.375 212.105469 158.511719 C 212.238281 158.648438 212.34375 158.808594 212.417969 158.988281 C 212.492188 159.167969 212.53125 159.355469 212.53125 159.550781 Z M 212.53125 185.996094 " clip-rule="nonzero"/></clipPath><linearGradient x1="1.999997" gradientTransform="matrix(2.909981, 0, 0, 2.938596, 148.510255, 143.387897)" y1="12.5" x2="22.999996" gradientUnits="userSpaceOnUse" y2="12.5" id="8b7fba2254"><stop stop-opacity="1" stop-color="rgb(30.198669%, 7.798767%, 54.499817%)" offset="0"/><stop stop-opacity="1" stop-color="rgb(30.198669%, 7.798767%, 54.499817%)" offset="0.0625"/><stop stop-opacity="1" stop-color="rgb(30.198669%, 7.798767%, 54.499817%)" offset="0.09375"/><stop stop-opacity="1" stop-color="rgb(30.305481%, 7.804871%, 54.466248%)" offset="0.101562"/><stop stop-opacity="1" stop-color="rgb(30.949402%, 7.841492%, 54.267883%)" offset="0.105469"/><stop stop-opacity="1" stop-color="rgb(31.486511%, 7.872009%, 54.103088%)" offset="0.109375"/><stop stop-opacity="1" stop-color="rgb(32.022095%, 7.901001%, 53.936768%)" offset="0.113281"/><stop stop-opacity="1" stop-color="rgb(32.559204%, 7.931519%, 53.771973%)" offset="0.117187"/><stop stop-opacity="1" stop-color="rgb(33.094788%, 7.96051%, 53.605652%)" offset="0.121094"/><stop stop-opacity="1" stop-color="rgb(33.631897%, 7.991028%, 53.440857%)" offset="0.125"/><stop stop-opacity="1" stop-color="rgb(34.16748%, 8.021545%, 53.276062%)" offset="0.128906"/><stop stop-opacity="1" stop-color="rgb(34.70459%, 8.052063%, 53.111267%)" offset="0.132812"/><stop stop-opacity="1" stop-color="rgb(35.240173%, 8.081055%, 52.944946%)" offset="0.136719"/><stop stop-opacity="1" stop-color="rgb(35.777283%, 8.111572%, 52.780151%)" offset="0.140625"/><stop stop-opacity="1" stop-color="rgb(36.312866%, 8.140564%, 52.615356%)" offset="0.144531"/><stop stop-opacity="1" stop-color="rgb(36.849976%, 8.171082%, 52.450562%)" offset="0.148438"/><stop stop-opacity="1" stop-color="rgb(37.385559%, 8.201599%, 52.284241%)" offset="0.152344"/><stop stop-opacity="1" stop-color="rgb(37.922668%, 8.232117%, 52.119446%)" offset="0.15625"/><stop stop-opacity="1" stop-color="rgb(38.458252%, 8.261108%, 51.953125%)" offset="0.160156"/><stop stop-opacity="1" stop-color="rgb(38.995361%, 8.291626%, 51.78833%)" offset="0.164062"/><stop stop-opacity="1" stop-color="rgb(39.530945%, 8.322144%, 51.623535%)" offset="0.167969"/><stop stop-opacity="1" stop-color="rgb(40.068054%, 8.352661%, 51.45874%)" offset="0.171875"/><stop stop-opacity="1" stop-color="rgb(40.603638%, 8.381653%, 51.292419%)" offset="0.175781"/><stop stop-opacity="1" stop-color="rgb(41.140747%, 8.41217%, 51.127625%)" offset="0.179688"/><stop stop-opacity="1" stop-color="rgb(41.676331%, 8.441162%, 50.96283%)" offset="0.183594"/><stop stop-opacity="1" stop-color="rgb(42.21344%, 8.47168%, 50.798035%)" offset="0.1875"/><stop stop-opacity="1" stop-color="rgb(42.749023%, 8.502197%, 50.631714%)" offset="0.191406"/><stop stop-opacity="1" stop-color="rgb(43.286133%, 8.532715%, 50.466919%)" offset="0.195312"/><stop stop-opacity="1" stop-color="rgb(43.821716%, 8.561707%, 50.300598%)" offset="0.199219"/><stop stop-opacity="1" stop-color="rgb(44.358826%, 8.592224%, 50.135803%)" offset="0.203125"/><stop stop-opacity="1" stop-color="rgb(44.894409%, 8.622742%, 49.971008%)" offset="0.207031"/><stop stop-opacity="1" stop-color="rgb(45.431519%, 8.653259%, 49.806213%)" offset="0.210937"/><stop stop-opacity="1" stop-color="rgb(45.967102%, 8.682251%, 49.639893%)" offset="0.214844"/><stop stop-opacity="1" stop-color="rgb(46.504211%, 8.712769%, 49.475098%)" offset="0.21875"/><stop stop-opacity="1" stop-color="rgb(47.039795%, 8.74176%, 49.308777%)" offset="0.222656"/><stop stop-opacity="1" stop-color="rgb(47.576904%, 8.772278%, 49.143982%)" offset="0.226562"/><stop stop-opacity="1" stop-color="rgb(48.112488%, 8.802795%, 48.979187%)" offset="0.230469"/><stop stop-opacity="1" stop-color="rgb(48.649597%, 8.833313%, 48.814392%)" offset="0.234375"/><stop stop-opacity="1" stop-color="rgb(49.185181%, 8.862305%, 48.648071%)" offset="0.238281"/><stop stop-opacity="1" stop-color="rgb(49.72229%, 8.892822%, 48.483276%)" offset="0.242187"/><stop stop-opacity="1" stop-color="rgb(50.257874%, 8.921814%, 48.318481%)" offset="0.246094"/><stop stop-opacity="1" stop-color="rgb(50.794983%, 8.952332%, 48.153687%)" offset="0.25"/><stop stop-opacity="1" stop-color="rgb(51.330566%, 8.982849%, 47.987366%)" offset="0.253906"/><stop stop-opacity="1" stop-color="rgb(51.867676%, 9.013367%, 47.822571%)" offset="0.257812"/><stop stop-opacity="1" stop-color="rgb(52.403259%, 9.042358%, 47.65625%)" offset="0.261719"/><stop stop-opacity="1" stop-color="rgb(52.940369%, 9.072876%, 47.491455%)" offset="0.265625"/><stop stop-opacity="1" stop-color="rgb(53.475952%, 9.103394%, 47.32666%)" offset="0.269531"/><stop stop-opacity="1" stop-color="rgb(54.013062%, 9.133911%, 47.161865%)" offset="0.273438"/><stop stop-opacity="1" stop-color="rgb(54.548645%, 9.162903%, 46.995544%)" offset="0.277344"/><stop stop-opacity="1" stop-color="rgb(55.085754%, 9.19342%, 46.83075%)" offset="0.28125"/><stop stop-opacity="1" stop-color="rgb(55.621338%, 9.222412%, 46.665955%)" offset="0.285156"/><stop stop-opacity="1" stop-color="rgb(56.158447%, 9.25293%, 46.50116%)" offset="0.289062"/><stop stop-opacity="1" stop-color="rgb(56.694031%, 9.283447%, 46.334839%)" offset="0.292969"/><stop stop-opacity="1" stop-color="rgb(57.23114%, 9.313965%, 46.170044%)" offset="0.296875"/><stop stop-opacity="1" stop-color="rgb(57.766724%, 9.342957%, 46.003723%)" offset="0.300781"/><stop stop-opacity="1" stop-color="rgb(58.303833%, 9.373474%, 45.838928%)" offset="0.304688"/><stop stop-opacity="1" stop-color="rgb(58.839417%, 9.403992%, 45.674133%)" offset="0.308594"/><stop stop-opacity="1" stop-color="rgb(59.376526%, 9.434509%, 45.509338%)" offset="0.3125"/><stop stop-opacity="1" stop-color="rgb(59.912109%, 9.463501%, 45.343018%)" offset="0.316406"/><stop stop-opacity="1" stop-color="rgb(60.449219%, 9.494019%, 45.178223%)" offset="0.320312"/><stop stop-opacity="1" stop-color="rgb(60.984802%, 9.52301%, 45.011902%)" offset="0.324219"/><stop stop-opacity="1" stop-color="rgb(61.521912%, 9.553528%, 44.847107%)" offset="0.328125"/><stop stop-opacity="1" stop-color="rgb(62.057495%, 9.584045%, 44.682312%)" offset="0.332031"/><stop stop-opacity="1" stop-color="rgb(62.594604%, 9.614563%, 44.517517%)" offset="0.335937"/><stop stop-opacity="1" stop-color="rgb(63.130188%, 9.643555%, 44.351196%)" offset="0.339844"/><stop stop-opacity="1" stop-color="rgb(63.667297%, 9.674072%, 44.186401%)" offset="0.34375"/><stop stop-opacity="1" stop-color="rgb(64.202881%, 9.703064%, 44.021606%)" offset="0.347656"/><stop stop-opacity="1" stop-color="rgb(64.73999%, 9.733582%, 43.856812%)" offset="0.351562"/><stop stop-opacity="1" stop-color="rgb(65.275574%, 9.764099%, 43.690491%)" offset="0.355469"/><stop stop-opacity="1" stop-color="rgb(65.812683%, 9.794617%, 43.525696%)" offset="0.359375"/><stop stop-opacity="1" stop-color="rgb(66.375732%, 9.819031%, 43.348694%)" offset="0.363281"/><stop stop-opacity="1" stop-color="rgb(66.938782%, 9.843445%, 43.173218%)" offset="0.367187"/><stop stop-opacity="1" stop-color="rgb(67.503357%, 9.867859%, 42.996216%)" offset="0.371094"/><stop stop-opacity="1" stop-color="rgb(68.067932%, 9.892273%, 42.819214%)" offset="0.375"/><stop stop-opacity="1" stop-color="rgb(68.632507%, 9.915161%, 42.640686%)" offset="0.378906"/><stop stop-opacity="1" stop-color="rgb(69.198608%, 9.939575%, 42.463684%)" offset="0.382812"/><stop stop-opacity="1" stop-color="rgb(69.763184%, 9.963989%, 42.286682%)" offset="0.386719"/><stop stop-opacity="1" stop-color="rgb(70.327759%, 9.988403%, 42.10968%)" offset="0.390625"/><stop stop-opacity="1" stop-color="rgb(70.892334%, 10.011292%, 41.931152%)" offset="0.394531"/><stop stop-opacity="1" stop-color="rgb(71.458435%, 10.035706%, 41.75415%)" offset="0.398437"/><stop stop-opacity="1" stop-color="rgb(72.02301%, 10.06012%, 41.577148%)" offset="0.402344"/><stop stop-opacity="1" stop-color="rgb(72.587585%, 10.084534%, 41.400146%)" offset="0.40625"/><stop stop-opacity="1" stop-color="rgb(73.152161%, 10.107422%, 41.223145%)" offset="0.410156"/><stop stop-opacity="1" stop-color="rgb(73.716736%, 10.131836%, 41.046143%)" offset="0.414062"/><stop stop-opacity="1" stop-color="rgb(74.281311%, 10.15625%, 40.867615%)" offset="0.417969"/><stop stop-opacity="1" stop-color="rgb(74.847412%, 10.180664%, 40.690613%)" offset="0.421875"/><stop stop-opacity="1" stop-color="rgb(75.411987%, 10.203552%, 40.513611%)" offset="0.425781"/><stop stop-opacity="1" stop-color="rgb(75.976562%, 10.227966%, 40.336609%)" offset="0.429687"/><stop stop-opacity="1" stop-color="rgb(76.541138%, 10.25238%, 40.159607%)" offset="0.433594"/><stop stop-opacity="1" stop-color="rgb(77.107239%, 10.276794%, 39.982605%)" offset="0.4375"/><stop stop-opacity="1" stop-color="rgb(77.671814%, 10.299683%, 39.804077%)" offset="0.441406"/><stop stop-opacity="1" stop-color="rgb(78.236389%, 10.324097%, 39.627075%)" offset="0.445312"/><stop stop-opacity="1" stop-color="rgb(78.800964%, 10.348511%, 39.450073%)" offset="0.449219"/><stop stop-opacity="1" stop-color="rgb(79.367065%, 10.372925%, 39.273071%)" offset="0.453125"/><stop stop-opacity="1" stop-color="rgb(79.931641%, 10.395813%, 39.094543%)" offset="0.457031"/><stop stop-opacity="1" stop-color="rgb(80.496216%, 10.420227%, 38.917542%)" offset="0.460938"/><stop stop-opacity="1" stop-color="rgb(81.060791%, 10.444641%, 38.74054%)" offset="0.464844"/><stop stop-opacity="1" stop-color="rgb(81.626892%, 10.469055%, 38.563538%)" offset="0.46875"/><stop stop-opacity="1" stop-color="rgb(82.191467%, 10.491943%, 38.386536%)" offset="0.472656"/><stop stop-opacity="1" stop-color="rgb(82.756042%, 10.516357%, 38.209534%)" offset="0.476562"/><stop stop-opacity="1" stop-color="rgb(83.320618%, 10.540771%, 38.031006%)" offset="0.480469"/><stop stop-opacity="1" stop-color="rgb(83.885193%, 10.565186%, 37.854004%)" offset="0.484375"/><stop stop-opacity="1" stop-color="rgb(84.326172%, 10.655212%, 37.641907%)" offset="0.488281"/><stop stop-opacity="1" stop-color="rgb(84.767151%, 10.746765%, 37.431335%)" offset="0.492188"/><stop stop-opacity="1" stop-color="rgb(84.889221%, 11.00769%, 37.130737%)" offset="0.496094"/><stop stop-opacity="1" stop-color="rgb(85.011292%, 11.270142%, 36.831665%)" offset="0.5"/><stop stop-opacity="1" stop-color="rgb(85.133362%, 11.532593%, 36.531067%)" offset="0.503906"/><stop stop-opacity="1" stop-color="rgb(85.255432%, 11.795044%, 36.231995%)" offset="0.507813"/><stop stop-opacity="1" stop-color="rgb(85.377502%, 12.057495%, 35.931396%)" offset="0.511719"/><stop stop-opacity="1" stop-color="rgb(85.499573%, 12.319946%, 35.632324%)" offset="0.515625"/><stop stop-opacity="1" stop-color="rgb(85.621643%, 12.582397%, 35.333252%)" offset="0.519531"/><stop stop-opacity="1" stop-color="rgb(85.743713%, 12.844849%, 35.03418%)" offset="0.523438"/><stop stop-opacity="1" stop-color="rgb(85.865784%, 13.105774%, 34.733582%)" offset="0.527344"/><stop stop-opacity="1" stop-color="rgb(85.987854%, 13.368225%, 34.434509%)" offset="0.53125"/><stop stop-opacity="1" stop-color="rgb(86.108398%, 13.630676%, 34.133911%)" offset="0.535156"/><stop stop-opacity="1" stop-color="rgb(86.230469%, 13.893127%, 33.834839%)" offset="0.539062"/><stop stop-opacity="1" stop-color="rgb(86.352539%, 14.155579%, 33.534241%)" offset="0.542969"/><stop stop-opacity="1" stop-color="rgb(86.474609%, 14.41803%, 33.235168%)" offset="0.546875"/><stop stop-opacity="1" stop-color="rgb(86.59668%, 14.680481%, 32.93457%)" offset="0.550781"/><stop stop-opacity="1" stop-color="rgb(86.71875%, 14.942932%, 32.635498%)" offset="0.554688"/><stop stop-opacity="1" stop-color="rgb(86.84082%, 15.205383%, 32.3349%)" offset="0.558594"/><stop stop-opacity="1" stop-color="rgb(86.962891%, 15.467834%, 32.035828%)" offset="0.5625"/><stop stop-opacity="1" stop-color="rgb(87.084961%, 15.72876%, 31.735229%)" offset="0.566406"/><stop stop-opacity="1" stop-color="rgb(87.207031%, 15.991211%, 31.436157%)" offset="0.570312"/><stop stop-opacity="1" stop-color="rgb(87.329102%, 16.253662%, 31.135559%)" offset="0.574219"/><stop stop-opacity="1" stop-color="rgb(87.451172%, 16.516113%, 30.836487%)" offset="0.578125"/><stop stop-opacity="1" stop-color="rgb(87.573242%, 16.778564%, 30.535889%)" offset="0.582031"/><stop stop-opacity="1" stop-color="rgb(87.695312%, 17.041016%, 30.236816%)" offset="0.585937"/><stop stop-opacity="1" stop-color="rgb(87.817383%, 17.303467%, 29.937744%)" offset="0.589844"/><stop stop-opacity="1" stop-color="rgb(87.939453%, 17.565918%, 29.638672%)" offset="0.59375"/><stop stop-opacity="1" stop-color="rgb(88.059998%, 17.826843%, 29.338074%)" offset="0.597656"/><stop stop-opacity="1" stop-color="rgb(88.182068%, 18.089294%, 29.039001%)" offset="0.601562"/><stop stop-opacity="1" stop-color="rgb(88.304138%, 18.351746%, 28.738403%)" offset="0.605469"/><stop stop-opacity="1" stop-color="rgb(88.426208%, 18.614197%, 28.439331%)" offset="0.609375"/><stop stop-opacity="1" stop-color="rgb(88.548279%, 18.876648%, 28.138733%)" offset="0.613281"/><stop stop-opacity="1" stop-color="rgb(88.670349%, 19.139099%, 27.839661%)" offset="0.617188"/><stop stop-opacity="1" stop-color="rgb(88.792419%, 19.40155%, 27.539062%)" offset="0.621094"/><stop stop-opacity="1" stop-color="rgb(88.91449%, 19.664001%, 27.23999%)" offset="0.625"/><stop stop-opacity="1" stop-color="rgb(89.03656%, 19.924927%, 26.939392%)" offset="0.628906"/><stop stop-opacity="1" stop-color="rgb(89.15863%, 20.187378%, 26.64032%)" offset="0.632812"/><stop stop-opacity="1" stop-color="rgb(89.280701%, 20.449829%, 26.339722%)" offset="0.636719"/><stop stop-opacity="1" stop-color="rgb(89.402771%, 20.71228%, 26.040649%)" offset="0.640625"/><stop stop-opacity="1" stop-color="rgb(89.524841%, 20.974731%, 25.740051%)" offset="0.644531"/><stop stop-opacity="1" stop-color="rgb(89.646912%, 21.237183%, 25.440979%)" offset="0.648438"/><stop stop-opacity="1" stop-color="rgb(89.768982%, 21.499634%, 25.141907%)" offset="0.652344"/><stop stop-opacity="1" stop-color="rgb(89.891052%, 21.762085%, 24.842834%)" offset="0.65625"/><stop stop-opacity="1" stop-color="rgb(90.011597%, 22.024536%, 24.542236%)" offset="0.660156"/><stop stop-opacity="1" stop-color="rgb(90.133667%, 22.286987%, 24.243164%)" offset="0.664062"/><stop stop-opacity="1" stop-color="rgb(90.255737%, 22.547913%, 23.942566%)" offset="0.667969"/><stop stop-opacity="1" stop-color="rgb(90.377808%, 22.810364%, 23.643494%)" offset="0.671875"/><stop stop-opacity="1" stop-color="rgb(90.499878%, 23.072815%, 23.342896%)" offset="0.675781"/><stop stop-opacity="1" stop-color="rgb(90.621948%, 23.335266%, 23.043823%)" offset="0.679687"/><stop stop-opacity="1" stop-color="rgb(90.744019%, 23.597717%, 22.743225%)" offset="0.683594"/><stop stop-opacity="1" stop-color="rgb(90.866089%, 23.860168%, 22.444153%)" offset="0.6875"/><stop stop-opacity="1" stop-color="rgb(90.988159%, 24.12262%, 22.143555%)" offset="0.691406"/><stop stop-opacity="1" stop-color="rgb(91.110229%, 24.385071%, 21.844482%)" offset="0.695312"/><stop stop-opacity="1" stop-color="rgb(91.2323%, 24.645996%, 21.543884%)" offset="0.699219"/><stop stop-opacity="1" stop-color="rgb(91.35437%, 24.908447%, 21.244812%)" offset="0.703125"/><stop stop-opacity="1" stop-color="rgb(91.47644%, 25.170898%, 20.944214%)" offset="0.707031"/><stop stop-opacity="1" stop-color="rgb(91.598511%, 25.43335%, 20.645142%)" offset="0.710937"/><stop stop-opacity="1" stop-color="rgb(91.719055%, 25.695801%, 20.344543%)" offset="0.714844"/><stop stop-opacity="1" stop-color="rgb(91.841125%, 25.958252%, 20.045471%)" offset="0.71875"/><stop stop-opacity="1" stop-color="rgb(91.963196%, 26.220703%, 19.746399%)" offset="0.722656"/><stop stop-opacity="1" stop-color="rgb(92.085266%, 26.483154%, 19.447327%)" offset="0.726562"/><stop stop-opacity="1" stop-color="rgb(92.207336%, 26.74408%, 19.146729%)" offset="0.730469"/><stop stop-opacity="1" stop-color="rgb(92.329407%, 27.006531%, 18.847656%)" offset="0.734375"/><stop stop-opacity="1" stop-color="rgb(92.451477%, 27.268982%, 18.547058%)" offset="0.738281"/><stop stop-opacity="1" stop-color="rgb(92.573547%, 27.531433%, 18.247986%)" offset="0.742188"/><stop stop-opacity="1" stop-color="rgb(92.695618%, 27.793884%, 17.947388%)" offset="0.746094"/><stop stop-opacity="1" stop-color="rgb(92.817688%, 28.056335%, 17.648315%)" offset="0.75"/><stop stop-opacity="1" stop-color="rgb(92.939758%, 28.318787%, 17.347717%)" offset="0.753906"/><stop stop-opacity="1" stop-color="rgb(93.061829%, 28.581238%, 17.048645%)" offset="0.757812"/><stop stop-opacity="1" stop-color="rgb(93.183899%, 28.843689%, 16.748047%)" offset="0.761719"/><stop stop-opacity="1" stop-color="rgb(93.305969%, 29.10614%, 16.448975%)" offset="0.765625"/><stop stop-opacity="1" stop-color="rgb(93.42804%, 29.367065%, 16.148376%)" offset="0.769531"/><stop stop-opacity="1" stop-color="rgb(93.55011%, 29.629517%, 15.849304%)" offset="0.773438"/><stop stop-opacity="1" stop-color="rgb(93.670654%, 29.891968%, 15.548706%)" offset="0.777344"/><stop stop-opacity="1" stop-color="rgb(93.792725%, 30.154419%, 15.249634%)" offset="0.78125"/><stop stop-opacity="1" stop-color="rgb(93.914795%, 30.41687%, 14.950562%)" offset="0.785156"/><stop stop-opacity="1" stop-color="rgb(94.036865%, 30.679321%, 14.651489%)" offset="0.789062"/><stop stop-opacity="1" stop-color="rgb(94.158936%, 30.941772%, 14.350891%)" offset="0.792969"/><stop stop-opacity="1" stop-color="rgb(94.281006%, 31.204224%, 14.051819%)" offset="0.796875"/><stop stop-opacity="1" stop-color="rgb(94.403076%, 31.465149%, 13.751221%)" offset="0.800781"/><stop stop-opacity="1" stop-color="rgb(94.525146%, 31.7276%, 13.452148%)" offset="0.804687"/><stop stop-opacity="1" stop-color="rgb(94.647217%, 31.990051%, 13.15155%)" offset="0.808594"/><stop stop-opacity="1" stop-color="rgb(94.769287%, 32.252502%, 12.852478%)" offset="0.8125"/><stop stop-opacity="1" stop-color="rgb(94.891357%, 32.514954%, 12.55188%)" offset="0.816406"/><stop stop-opacity="1" stop-color="rgb(95.013428%, 32.777405%, 12.252808%)" offset="0.820312"/><stop stop-opacity="1" stop-color="rgb(95.135498%, 33.039856%, 11.952209%)" offset="0.824219"/><stop stop-opacity="1" stop-color="rgb(95.257568%, 33.302307%, 11.653137%)" offset="0.828125"/><stop stop-opacity="1" stop-color="rgb(95.379639%, 33.564758%, 11.352539%)" offset="0.832031"/><stop stop-opacity="1" stop-color="rgb(95.501709%, 33.827209%, 11.053467%)" offset="0.835938"/><stop stop-opacity="1" stop-color="rgb(95.622253%, 34.088135%, 10.752869%)" offset="0.839844"/><stop stop-opacity="1" stop-color="rgb(95.744324%, 34.350586%, 10.453796%)" offset="0.84375"/><stop stop-opacity="1" stop-color="rgb(95.866394%, 34.613037%, 10.153198%)" offset="0.847656"/><stop stop-opacity="1" stop-color="rgb(95.988464%, 34.875488%, 9.854126%)" offset="0.851562"/><stop stop-opacity="1" stop-color="rgb(96.110535%, 35.137939%, 9.555054%)" offset="0.855469"/><stop stop-opacity="1" stop-color="rgb(96.232605%, 35.400391%, 9.255981%)" offset="0.859375"/><stop stop-opacity="1" stop-color="rgb(96.354675%, 35.662842%, 8.955383%)" offset="0.863281"/><stop stop-opacity="1" stop-color="rgb(96.476746%, 35.925293%, 8.656311%)" offset="0.867188"/><stop stop-opacity="1" stop-color="rgb(96.598816%, 36.186218%, 8.355713%)" offset="0.871094"/><stop stop-opacity="1" stop-color="rgb(96.720886%, 36.448669%, 8.056641%)" offset="0.875"/><stop stop-opacity="1" stop-color="rgb(96.842957%, 36.711121%, 7.756042%)" offset="0.878906"/><stop stop-opacity="1" stop-color="rgb(96.965027%, 36.973572%, 7.45697%)" offset="0.882812"/><stop stop-opacity="1" stop-color="rgb(97.087097%, 37.236023%, 7.156372%)" offset="0.886719"/><stop stop-opacity="1" stop-color="rgb(97.209167%, 37.498474%, 6.8573%)" offset="0.890625"/><stop stop-opacity="1" stop-color="rgb(97.329712%, 37.760925%, 6.556702%)" offset="0.894531"/><stop stop-opacity="1" stop-color="rgb(97.451782%, 38.023376%, 6.257629%)" offset="0.898438"/><stop stop-opacity="1" stop-color="rgb(97.573853%, 38.284302%, 5.957031%)" offset="0.902344"/><stop stop-opacity="1" stop-color="rgb(97.695923%, 38.546753%, 5.657959%)" offset="0.90625"/><stop stop-opacity="1" stop-color="rgb(97.817993%, 38.809204%, 5.357361%)" offset="0.910156"/><stop stop-opacity="1" stop-color="rgb(97.940063%, 39.071655%, 5.058289%)" offset="0.914062"/><stop stop-opacity="1" stop-color="rgb(98.062134%, 39.334106%, 4.759216%)" offset="0.917969"/><stop stop-opacity="1" stop-color="rgb(98.184204%, 39.596558%, 4.460144%)" offset="0.921875"/><stop stop-opacity="1" stop-color="rgb(98.306274%, 39.859009%, 4.159546%)" offset="0.925781"/><stop stop-opacity="1" stop-color="rgb(98.428345%, 40.12146%, 3.860474%)" offset="0.929687"/><stop stop-opacity="1" stop-color="rgb(98.550415%, 40.383911%, 3.559875%)" offset="0.933594"/><stop stop-opacity="1" stop-color="rgb(98.672485%, 40.646362%, 3.260803%)" offset="0.9375"/><stop stop-opacity="1" stop-color="rgb(98.794556%, 40.907288%, 2.960205%)" offset="0.941406"/><stop stop-opacity="1" stop-color="rgb(98.916626%, 41.169739%, 2.661133%)" offset="0.945313"/><stop stop-opacity="1" stop-color="rgb(99.038696%, 41.43219%, 2.360535%)" offset="0.949219"/><stop stop-opacity="1" stop-color="rgb(99.160767%, 41.694641%, 2.061462%)" offset="0.953125"/><stop stop-opacity="1" stop-color="rgb(99.281311%, 41.957092%, 1.760864%)" offset="0.957031"/><stop stop-opacity="1" stop-color="rgb(99.403381%, 42.219543%, 1.461792%)" offset="0.960938"/><stop stop-opacity="1" stop-color="rgb(99.525452%, 42.481995%, 1.161194%)" offset="0.964844"/><stop stop-opacity="1" stop-color="rgb(99.647522%, 42.744446%, 0.862122%)" offset="0.96875"/><stop stop-opacity="1" stop-color="rgb(99.769592%, 43.005371%, 0.561523%)" offset="0.972656"/><stop stop-opacity="1" stop-color="rgb(99.891663%, 43.267822%, 0.262451%)" offset="0.976562"/><stop stop-opacity="1" stop-color="rgb(99.945068%, 43.383789%, 0.131226%)" offset="0.984375"/><stop stop-opacity="1" stop-color="rgb(100%, 43.499756%, 0%)" offset="1"/></linearGradient></defs><g clip-path="url(#99495babb8)"><g clip-path="url(#74b6fed63e)"><path fill="url(#8b7fba2254)" d="M 154.332031 155.140625 L 154.332031 205.207031 L 215.441406 205.207031 L 215.441406 155.140625 Z M 154.332031 155.140625 " fill-rule="nonzero"/></g></g><g fill="#4d148b" fill-opacity="1"><g transform="translate(98.177866, 238.36895)"><g><path d="M 16.609375 -4.625 L 16.609375 0 L 1.484375 0 L 1.484375 -18.1875 L 16.265625 -18.1875 L 16.265625 -13.5625 L 7.515625 -13.5625 L 7.515625 -11.4375 L 15.203125 -11.4375 L 15.203125 -7.015625 L 7.515625 -7.015625 L 7.515625 -4.625 Z M 16.609375 -4.625 "/></g></g></g><g fill="#4d148b" fill-opacity="1"><g transform="translate(115.653744, 238.36895)"><g><path d="M 13.875 -3.171875 L 6.96875 -3.171875 L 5.75 0 L -0.5 0 L 7.453125 -18.1875 L 13.484375 -18.1875 L 21.4375 0 L 15.09375 0 Z M 12.1875 -7.59375 L 10.421875 -12.15625 L 8.65625 -7.59375 Z M 12.1875 -7.59375 "/></g></g></g><g fill="#4d148b" fill-opacity="1"><g transform="translate(136.583247, 238.36895)"><g><path d="M 9.28125 -4.578125 L 7.609375 -4.578125 L 7.609375 0 L 1.484375 0 L 1.484375 -18.1875 L 10.234375 -18.1875 C 11.921875 -18.1875 13.382812 -17.910156 14.625 -17.359375 C 15.875 -16.804688 16.835938 -16.007812 17.515625 -14.96875 C 18.191406 -13.925781 18.53125 -12.710938 18.53125 -11.328125 C 18.53125 -10.023438 18.234375 -8.890625 17.640625 -7.921875 C 17.054688 -6.953125 16.207031 -6.179688 15.09375 -5.609375 L 18.921875 0 L 12.375 0 Z M 12.34375 -11.328125 C 12.34375 -12.003906 12.132812 -12.523438 11.71875 -12.890625 C 11.300781 -13.265625 10.675781 -13.453125 9.84375 -13.453125 L 7.609375 -13.453125 L 7.609375 -9.203125 L 9.84375 -9.203125 C 10.675781 -9.203125 11.300781 -9.382812 11.71875 -9.75 C 12.132812 -10.125 12.34375 -10.648438 12.34375 -11.328125 Z M 12.34375 -11.328125 "/></g></g></g><g fill="#4d148b" fill-opacity="1"><g transform="translate(155.92875, 238.36895)"><g><path d="M 19.40625 -18.1875 L 19.40625 0 L 14.375 0 L 7.453125 -8.265625 L 7.453125 0 L 1.484375 0 L 1.484375 -18.1875 L 6.515625 -18.1875 L 13.4375 -9.921875 L 13.4375 -18.1875 Z M 19.40625 -18.1875 "/></g></g></g><g fill="#a8196f" fill-opacity="1"><g transform="translate(176.742694, 238.36895)"><g><path d="M 8.140625 0.3125 C 6.691406 0.3125 5.296875 0.117188 3.953125 -0.265625 C 2.617188 -0.660156 1.546875 -1.171875 0.734375 -1.796875 L 2.15625 -4.96875 C 2.9375 -4.394531 3.863281 -3.929688 4.9375 -3.578125 C 6.007812 -3.234375 7.082031 -3.0625 8.15625 -3.0625 C 9.351562 -3.0625 10.238281 -3.238281 10.8125 -3.59375 C 11.382812 -3.945312 11.671875 -4.421875 11.671875 -5.015625 C 11.671875 -5.453125 11.5 -5.8125 11.15625 -6.09375 C 10.820312 -6.375 10.390625 -6.601562 9.859375 -6.78125 C 9.328125 -6.957031 8.613281 -7.148438 7.71875 -7.359375 C 6.332031 -7.679688 5.195312 -8.003906 4.3125 -8.328125 C 3.425781 -8.660156 2.664062 -9.191406 2.03125 -9.921875 C 1.40625 -10.648438 1.09375 -11.625 1.09375 -12.84375 C 1.09375 -13.894531 1.378906 -14.847656 1.953125 -15.703125 C 2.523438 -16.566406 3.382812 -17.25 4.53125 -17.75 C 5.6875 -18.25 7.09375 -18.5 8.75 -18.5 C 9.914062 -18.5 11.050781 -18.359375 12.15625 -18.078125 C 13.269531 -17.804688 14.242188 -17.410156 15.078125 -16.890625 L 13.765625 -13.6875 C 12.085938 -14.644531 10.410156 -15.125 8.734375 -15.125 C 7.554688 -15.125 6.6875 -14.929688 6.125 -14.546875 C 5.5625 -14.171875 5.28125 -13.671875 5.28125 -13.046875 C 5.28125 -12.421875 5.601562 -11.957031 6.25 -11.65625 C 6.894531 -11.351562 7.882812 -11.050781 9.21875 -10.75 C 10.601562 -10.425781 11.738281 -10.097656 12.625 -9.765625 C 13.507812 -9.441406 14.265625 -8.921875 14.890625 -8.203125 C 15.523438 -7.492188 15.84375 -6.535156 15.84375 -5.328125 C 15.84375 -4.285156 15.550781 -3.332031 14.96875 -2.46875 C 14.394531 -1.613281 13.523438 -0.9375 12.359375 -0.4375 C 11.203125 0.0625 9.796875 0.3125 8.140625 0.3125 Z M 8.140625 0.3125 "/></g></g></g><g fill="#a8196f" fill-opacity="1"><g transform="translate(193.309717, 238.36895)"><g><path d="M 8.78125 -7.140625 L 6.34375 -4.59375 L 6.34375 0 L 2.15625 0 L 2.15625 -18.1875 L 6.34375 -18.1875 L 6.34375 -9.6875 L 14.390625 -18.1875 L 19.078125 -18.1875 L 11.53125 -10.078125 L 19.515625 0 L 14.609375 0 Z M 8.78125 -7.140625 "/></g></g></g><g fill="#a8196f" fill-opacity="1"><g transform="translate(212.525387, 238.36895)"><g><path d="M 2.15625 -18.1875 L 6.359375 -18.1875 L 6.359375 0 L 2.15625 0 Z M 2.15625 -18.1875 "/></g></g></g><g fill="#a8196f" fill-opacity="1"><g transform="translate(221.042597, 238.36895)"><g><path d="M 2.15625 -18.1875 L 6.359375 -18.1875 L 6.359375 -3.4375 L 15.484375 -3.4375 L 15.484375 0 L 2.15625 0 Z M 2.15625 -18.1875 "/></g></g></g><g fill="#a8196f" fill-opacity="1"><g transform="translate(236.726745, 238.36895)"><g><path d="M 2.15625 -18.1875 L 6.359375 -18.1875 L 6.359375 -3.4375 L 15.484375 -3.4375 L 15.484375 0 L 2.15625 0 Z M 2.15625 -18.1875 "/></g></g></g><g fill="#a8196f" fill-opacity="1"><g transform="translate(252.410894, 238.36895)"><g><path d="M 16.890625 -3.4375 L 16.890625 0 L 0.984375 0 L 0.984375 -2.734375 L 10.96875 -14.765625 L 1.1875 -14.765625 L 1.1875 -18.1875 L 16.5 -18.1875 L 16.5 -15.453125 L 6.546875 -3.4375 Z M 16.890625 -3.4375 "/></g></g></g></svg>